<?xml version="1.0" encoding="UTF-8" standalone="no"?>
<svg
   xmlns:dc="http://purl.org/dc/elements/1.1/"
   xmlns:cc="http://creativecommons.org/ns#"
   xmlns:rdf="http://www.w3.org/1999/02/22-rdf-syntax-ns#"
   xmlns:svg="http://www.w3.org/2000/svg"
   xmlns="http://www.w3.org/2000/svg"
   id="svg2"
   version="1.1"
   viewBox="0 0 48 48"
   height="120px"
   width="120px">
  <defs
     id="defs4">
    <linearGradient
       x1="23.436"
       y1="18.741"
       gradientTransform="matrix(1.2835 0 0 1.2073 249.87 404.8)"
       x2="29.405"
       gradientUnits="userSpaceOnUse"
       y2="40.722"
       id="linearGradient3620">
      <stop
         offset="0"
         style="stop-color:#f2f2f2"
         id="stop3616" />
      <stop
         offset="1"
         style="stop-color:#cccccc"
         id="stop3618" />
    </linearGradient>
    <linearGradient
       x1="15.139"
       y1="10.443"
       gradientTransform="matrix(1.2835 0 0 1.2073 249.87 404.8)"
       x2="18.633"
       gradientUnits="userSpaceOnUse"
       y2="31.32"
       id="linearGradient3628">
      <stop
         offset="0"
         style="stop-color:#6a0000"
         id="stop3624" />
      <stop
         offset="1"
         style="stop-color:#ee0000"
         id="stop3626" />
    </linearGradient>
    <linearGradient
       x1="20.292"
       y1="18.098"
       gradientTransform="matrix(1.2835 0 0 1.2073 249.87 404.8)"
       x2="19.542"
       gradientUnits="userSpaceOnUse"
       y2="12.128"
       id="linearGradient3656">
      <stop
         offset="0"
         style="stop-color:#000000"
         id="stop3652" />
      <stop
         offset="1"
         style="stop-color:#000000;stop-opacity:0"
         id="stop3654" />
    </linearGradient>
  </defs>
  <g
     transform="translate(-254.29 -410.08)"
     id="layer1">
    <rect
       x="254.29"
       y="410.09"
       width="48"
       height="48"
       ry=".0024496"
       style="color:#000000;fill:none"
       id="rect3763" />
    <path
       d="m299.66 416c-2.313 10.455 4.5102 24.874-2.2656 34.091-4.9977 1.6722-14.78 3.6513-37.059 3.8708 1.9499 0 3.4619-4.2253 2.9414-10.597l-2.6611-15.589c-0.10798-9.4538 10.941-9.5846 13.114-4.8063 4.5922-3.218 16.715-6.1559 25.931-6.969z"
       style="color:#000000;fill:url(#linearGradient3620)"
       id="rect3601" />
    <path
       d="m256.41 428.65v13.357h34.751v-13.357h-34.751z"
       style="fill:url(#linearGradient3628)"
       id="path3591" />
    <g
       transform="scale(1.031 .96989)"
       style="fill:#800000"
       id="text3603-5">
      <path
         d="m253.34 444.73h3.884c1.1549 0.00001 2.0402 0.25732 2.6562 0.77194 0.61997 0.51058 0.92996 1.24 0.92997 2.1882-0.00001 0.95226-0.31 1.6857-0.92997 2.2003-0.61594 0.51057-1.5013 0.76586-2.6562 0.76586h-1.5439v3.1485h-2.3401v-9.0748m2.3401 1.6958v2.5346h1.2947c0.45384 0 0.80435-0.10941 1.0515-0.32823 0.24717-0.22286 0.37076-0.5369 0.37077-0.94212-0.00001-0.40521-0.1236-0.71723-0.37077-0.93605-0.24719-0.21881-0.5977-0.32822-1.0515-0.32823h-1.2947"
         style="fill:#800000"
         id="path2846" />
      <path
         d="m264.8 446.5v5.5373h0.83879c0.95631 0 1.6857-0.23705 2.1882-0.71116 0.50651-0.4741 0.75977-1.163 0.75978-2.0666-0.00001-0.89957-0.25124-1.5844-0.7537-2.0544-0.50248-0.47005-1.2339-0.70507-2.1942-0.70508h-0.83879m-2.3401-1.7688h2.4678c1.3777 0.00001 2.4029 0.0993 3.0756 0.29784 0.6767 0.19451 1.2562 0.52679 1.7384 0.99683 0.42547 0.40927 0.74154 0.88135 0.94821 1.4162 0.20665 0.53489 0.30998 1.1407 0.30999 1.8174-0.00001 0.68482-0.10334 1.2967-0.30999 1.8356-0.20667 0.53489-0.52274 1.007-0.94821 1.4162-0.48626 0.47005-1.0698 0.80435-1.7505 1.0029-0.68077 0.1945-1.7019 0.29176-3.0634 0.29176h-2.4678v-9.0748"
         style="fill:#800000"
         id="path2848" />
      <path
         d="m272.79 444.73h6.3153v1.7688h-3.9752v1.6898h3.7381v1.7688h-3.7381v3.8475h-2.3401v-9.0748"
         style="fill:#800000"
         id="path2850" />
    </g>
    <g
       transform="matrix(1.031 0 0 .96989 -3.0512 5.0674)"
       style="fill:#ffffff"
       id="text3603">
      <path
         d="m255.94 439.09h3.884c1.1549 0.00001 2.0402 0.25733 2.6562 0.77194 0.61997 0.51058 0.92996 1.24 0.92997 2.1882-0.00001 0.95226-0.31 1.6857-0.92997 2.2003-0.61594 0.51058-1.5013 0.76586-2.6562 0.76586h-1.5439v3.1485h-2.3401v-9.0748m2.3401 1.6958v2.5346h1.2947c0.45384 0 0.80435-0.1094 1.0515-0.32823 0.24718-0.22286 0.37077-0.5369 0.37078-0.94212-0.00001-0.40521-0.1236-0.71723-0.37078-0.93605-0.24718-0.21881-0.59769-0.32822-1.0515-0.32823h-1.2947"
         style="fill:#ffffff"
         id="path2839" />
      <path
         d="m267.4 440.86v5.5373h0.8388c0.95631 0 1.6857-0.23705 2.1882-0.71116 0.50651-0.47409 0.75977-1.163 0.75978-2.0666-0.00001-0.89957-0.25124-1.5844-0.7537-2.0544-0.50248-0.47005-1.2339-0.70507-2.1942-0.70508h-0.8388m-2.3401-1.7688h2.4678c1.3777 0.00001 2.4029 0.0993 3.0756 0.29784 0.6767 0.19451 1.2562 0.52679 1.7384 0.99683 0.42547 0.40928 0.74154 0.88135 0.94821 1.4162 0.20665 0.53489 0.30998 1.1407 0.30999 1.8174-0.00001 0.68482-0.10334 1.2967-0.30999 1.8356-0.20667 0.53489-0.52274 1.007-0.94821 1.4162-0.48626 0.47005-1.0698 0.80436-1.7505 1.0029-0.68077 0.19451-1.7019 0.29176-3.0634 0.29176h-2.4678v-9.0748"
         style="fill:#ffffff"
         id="path2841" />
      <path
         d="m275.39 439.09h6.3153v1.7688h-3.9752v1.6898h3.7381v1.7688h-3.7381v3.8475h-2.3401v-9.0748"
         style="fill:#ffffff"
         id="path2843" />
    </g>
    <path
       d="m265.33 420.25c2.5051-0.63856 6.0218 0.39063 8.3229 2.6098 8.455-3.1379 16.91-5.3537 25.365-6.8351"
       style="stroke:url(#linearGradient3656);stroke-width:1.2448px;fill:none"
       id="path3648" />
    <path
       d="m256.38 441.95 34.744-0.0937v-13.124"
       style="stroke:#700000;stroke-width:1.1008px;fill:none"
       id="path3707" />
    <path
       d="m267.75 419.88c2.6298 0.35121 4.4883 1.0778 6.0628 2.5098 7.952-3.2857 14.841-4.3526 23.049-6.0921l-29.112 3.5823z"
       style="fill:#ffffff"
       id="path3761" />
  </g>
</svg>